<mxfile host="Electron" modified="2024-04-28T08:06:28.088Z" agent="Mozilla/5.0 (Windows NT 10.0; Win64; x64) AppleWebKit/537.36 (KHTML, like Gecko) draw.io/24.2.5 Chrome/120.0.6099.109 Electron/28.1.0 Safari/537.36" etag="XhzfRoyRj8gRi5KuE7Qr" version="24.2.5" type="device">
  <diagram id="sfGkyqJ-wVHbOri7GWkh" name="Seite-1">
    <mxGraphModel dx="1548" dy="902" grid="1" gridSize="10" guides="1" tooltips="1" connect="1" arrows="1" fold="1" page="1" pageScale="1" pageWidth="827" pageHeight="1169" math="0" shadow="0">
      <root>
        <mxCell id="0" />
        <mxCell id="1" parent="0" />
        <mxCell id="nMVIfYfNS6cF1Cbamtte-1" value="" style="rounded=0;whiteSpace=wrap;html=1;imageWidth=200;imageHeight=24;fillColor=#f5f5f5;strokeColor=#666666;gradientDirection=west;imageAspect=0;fontColor=#333333;" parent="1" vertex="1">
          <mxGeometry x="20" y="40" width="768" height="432" as="geometry" />
        </mxCell>
        <mxCell id="h6g0s02l1e8zA0EtPJ8A-17" value="" style="html=1;shadow=0;dashed=0;align=center;verticalAlign=middle;shape=mxgraph.arrows2.jumpInArrow;dy=15;dx=38;arrowHead=55;" parent="1" vertex="1">
          <mxGeometry x="189.49" y="140" width="100" height="100" as="geometry" />
        </mxCell>
        <mxCell id="h6g0s02l1e8zA0EtPJ8A-18" value="" style="html=1;shadow=0;dashed=0;align=center;verticalAlign=middle;shape=mxgraph.arrows2.jumpInArrow;dy=15;dx=38;arrowHead=55;rotation=90;" parent="1" vertex="1">
          <mxGeometry x="540" y="160" width="100" height="100" as="geometry" />
        </mxCell>
        <mxCell id="h6g0s02l1e8zA0EtPJ8A-10" value="" style="triangle;whiteSpace=wrap;html=1;rotation=-90;fillColor=#dae8fc;strokeColor=none;" parent="1" vertex="1">
          <mxGeometry x="130.25" y="219.25" width="141.5" height="360" as="geometry" />
        </mxCell>
        <mxCell id="h6g0s02l1e8zA0EtPJ8A-11" value="" style="triangle;whiteSpace=wrap;html=1;rotation=-90;fillColor=#dae8fc;strokeColor=none;" parent="1" vertex="1">
          <mxGeometry x="375.99" y="59" width="245.01" height="577" as="geometry" />
        </mxCell>
        <mxCell id="h6g0s02l1e8zA0EtPJ8A-15" value="" style="triangle;whiteSpace=wrap;html=1;rotation=-180;fillColor=#dae8fc;strokeColor=none;" parent="1" vertex="1">
          <mxGeometry x="548.5" y="142.5" width="238" height="327" as="geometry" />
        </mxCell>
        <mxCell id="h6g0s02l1e8zA0EtPJ8A-19" value="" style="html=1;shadow=0;dashed=0;align=center;verticalAlign=middle;shape=mxgraph.arrows2.jumpInArrow;dy=15;dx=38;arrowHead=55;rotation=-170;" parent="1" vertex="1">
          <mxGeometry x="369.34" y="295.96" width="139" height="100" as="geometry" />
        </mxCell>
        <mxCell id="0gX0ttdG74417VeoQY1U-2" value="" style="shape=image;verticalLabelPosition=bottom;labelBackgroundColor=default;verticalAlign=top;aspect=fixed;imageAspect=0;image=https://docs.syncthing.net/_static/logo-horizontal.svg;" parent="1" vertex="1">
          <mxGeometry x="305" y="130" width="217" height="59" as="geometry" />
        </mxCell>
        <mxCell id="0gX0ttdG74417VeoQY1U-4" value="" style="shape=image;imageAspect=0;aspect=fixed;verticalLabelPosition=bottom;verticalAlign=top;image=https://k3s.io/img/k3s-logo-light.svg;" parent="1" vertex="1">
          <mxGeometry x="100" y="248.4" width="269" height="104" as="geometry" />
        </mxCell>
        <mxCell id="bnCMVwj_WIEBCEc2miKh-2" value="" style="shape=image;aspect=fixed;image=data:image/svg+xml,PHN2ZyB4bWxucz0iaHR0cDovL3d3dy53My5vcmcvMjAwMC9zdmciIHdpZHRoPSIxNDAiIGhlaWdodD0iMjkiPjxnIGZpbGw9IiMyQjJCMkIiIGZpbGwtcnVsZT0iZXZlbm9kZCI+PHBhdGggZmlsbC1ydWxlPSJub256ZXJvIiBkPSJNMjAuMzU4IDI4Ljk3M0g2LjU3NGMtMy41OSAwLTYuNTItMi45LTYuNTItNi40NTVWMTEuODU0YzAtLjUwOC40MTgtLjkyMi45MzEtLjkyMmgyNC45NDhjLjUxNCAwIC45MzIuNDE0LjkzMi45MjJ2MTAuNjc4Yy4wMTQgMy41NDEtMi45MTYgNi40NDEtNi41MDcgNi40NDF6TTEuOTMgMTIuNzc2djkuNzU2YzAgMi41MzkgMi4wOTMgNC42MSA0LjY1OCA0LjYxaDEzLjc4NGMyLjU2NCAwIDQuNjU3LTIuMDcxIDQuNjU3LTQuNjF2LTkuNzU2SDEuOTN6Ii8+PHBhdGggZmlsbC1ydWxlPSJub256ZXJvIiBkPSJNMTYuNzI3IDI0LjA5NWgtNi41MjFhLjkyOS45MjkgMCAwIDEtLjkzMS0uOTIydi0zLjIyYzAtMi4yODYgMS44NzYtNC4xNDMgNC4xODQtNC4xNDMgMi4zMDkgMCA0LjE4NiAxLjg1NyA0LjE4NiA0LjE0M3YzLjIyYS45MDkuOTA5IDAgMCAxLS45MTguOTIyem0tNS41OS0xLjg0NGg0LjY1OHYtMi4yOThjMC0xLjI3LTEuMDQtMi4zLTIuMzIyLTIuMy0xLjI4MyAwLTIuMzIyIDEuMDMtMi4zMjIgMi4zdjIuMjk4aC0uMDE0eiIvPjxwYXRoIGQ9Ik0yNS45NDcgOS4xODFoLTUuMDIyYS45MjkuOTI5IDAgMCAxLS45MzEtLjkyMmMwLS41MDguNDE4LS45MjIuOTMxLS45MjJsNC4wNzcuMDEzVjEuODQ0SDIxLjg3djEuNTVjMCAuMjQxLS4wOTUuNDgyLS4yNy42NTVhLjkyMi45MjIgMCAwIDEtLjY2Mi4yNjhoLTQuOTk0YS45MjkuOTI5IDAgMCAxLS45MzItLjkyM3YtMS41NUgxMS44OHYxLjU1YS45MjkuOTI5IDAgMCAxLS45MzIuOTIzSDUuOTUzYS45NDUuOTQ1IDAgMCAxLS42NjEtLjI2OC45MDMuOTAzIDAgMCAxLS4yNy0uNjU1di0xLjU1SDEuOTMxVjcuMzVoNC4wMzZjLjUxMyAwIC45MzIuNDE1LjkzMi45MjJhLjkyOS45MjkgMCAwIDEtLjkzMi45MjJILjk5OWEuOTI5LjkyOSAwIDAgMS0uOTMxLS45MjJWLjkyMkMuMDY4LjQxNC40ODUgMCAuOTk5IDBoNC45OTVjLjUxMyAwIC45MzIuNDE0LjkzMi45MjJ2MS41NWgzLjEzMVYuOTIyYzAtLjUwOC40MTktLjkyMi45MzItLjkyMmg0Ljk5NWMuNTEzIDAgLjkzMi40MTQuOTMyLjkyMnYxLjU1aDMuMTMxVi45MjJjMC0uNTA4LjQxOS0uOTIyLjkzMi0uOTIyaDQuOTk1Yy41MTMgMCAuOTMxLjQxNC45MzEuOTIydjcuMzVjMCAuMjQtLjA5NC40ODEtLjI3LjY1NS0uMjAyLjE2LS40NDUuMjU0LS42ODguMjU0eiIvPjxwYXRoIGZpbGwtcnVsZT0ibm9uemVybyIgZD0iTTU0LjMzIDI2Ljc1OWwtNS40NTItNy41NzZjLS42MS4wNjctMS4yNDguMTA4LTEuOTEyLjEwOGgtNi40MDJ2Ny40NjhIMzguMDRWMy4yaDguOTI1YzMuMDM4IDAgNS40MjUuNzI0IDcuMTQ4IDIuMTU5IDEuNzIyIDEuNDM0IDIuNTkgMy40MDUgMi41OSA1LjkyNiAwIDEuODM3LS40NzQgMy4zOTItMS40MSA0LjY2Ni0uOTM2IDEuMjc0LTIuMjkyIDIuMTg1LTQuMDI5IDIuNzQ5bDUuODIgOC4wODRINTQuMzN2LS4wMjZ6TTUyLjMxIDE1LjYzYzEuMjQ4LTEuMDMyIDEuODcyLTIuNDggMS44NzItNC4zNDQgMC0xLjkwNC0uNjI0LTMuMzY1LTEuODcyLTQuMzk4LTEuMjQ4LTEuMDE5LTMuMDUyLTEuNTI4LTUuNDEyLTEuNTI4aC02LjMzNHYxMS44MTJoNi4zMzRjMi4zNiAwIDQuMTY0LS41MSA1LjQxMi0xLjU0MnptMTQuMzY0IDkuNzc0Yy0xLjkxMy0xLjA0NS0zLjQxOC0yLjQ4LTQuNDktNC4yOS0xLjA4NS0xLjgyMy0xLjYxNC0zLjg2MS0xLjYxNC02LjEyNyAwLTIuMjY2LjU0My00LjMwNCAxLjYxNC02LjEyOCAxLjA3Mi0xLjgyMyAyLjU3Ny0zLjI0NCA0LjQ5LTQuMjlDNjguNTg2IDMuNTIzIDcwLjczIDMgNzMuMDkgM2MyLjM2IDAgNC40OS41MjMgNi4zODggMS41NDJhMTEuNTEgMTEuNTEgMCAwIDEgNC40NzYgNC4yOWMxLjA4NSAxLjgyNCAxLjY0MSAzLjg3NSAxLjY0MSA2LjE0MXMtLjU0MiA0LjMxOC0xLjY0IDYuMTQxYTExLjUxIDExLjUxIDAgMCAxLTQuNDc3IDQuMjljLTEuODk5IDEuMDMzLTQuMDI4IDEuNTQyLTYuMzg4IDEuNTQyLTIuMzYuMDI3LTQuNTA0LS40OTYtNi40MTYtMS41NDJ6bTExLjUxNi0xLjkxN2E5LjMgOS4zIDAgMCAwIDMuNTgtMy41Yy44NjktMS40ODggMS4yODktMy4xNjQgMS4yODktNSAwLTEuODM3LS40MzQtMy41LTEuMjg5LTUuMDAyYTkuMyA5LjMgMCAwIDAtMy41OC0zLjQ5OWMtMS41Mi0uODQ1LTMuMjI5LTEuMjYtNS4xMTQtMS4yNi0xLjg4NSAwLTMuNTk0LjQxNS01LjEyNyAxLjI2cy0yLjc0IDIuMDExLTMuNjA4IDMuNWMtLjg2OCAxLjQ4OC0xLjMxNiAzLjE2NC0xLjMxNiA1IDAgMS44MzcuNDM0IDMuNTEzIDEuMzE2IDUuMDAyLjg2OCAxLjQ4OCAyLjA3NSAyLjY1NCAzLjYwOCAzLjUgMS41MzMuODQ0IDMuMjQyIDEuMjYgNS4xMjcgMS4yNiAxLjg5OSAwIDMuNTk0LS40MyA1LjExNC0xLjI2em0xNy4wNSAxLjkxN2MtMS45MTMtMS4wNDUtMy40MTktMi40OC00LjQ5LTQuMjktMS4wODUtMS44MjMtMS42MTQtMy44NjEtMS42MTQtNi4xMjcgMC0yLjI2Ni41NDItNC4zMDQgMS42MTQtNi4xMjggMS4wNzEtMS44MjMgMi41NzctMy4yNDQgNC40OS00LjI5Qzk3LjE1MSAzLjUyMyA5OS4yOTQgMyAxMDEuNjU0IDNjMi4zNiAwIDQuNDkuNTIzIDYuMzg5IDEuNTQyYTExLjUxIDExLjUxIDAgMCAxIDQuNDc2IDQuMjljMS4wODUgMS44MjQgMS42NCAzLjg3NSAxLjY0IDYuMTQxcy0uNTQyIDQuMzE4LTEuNjQgNi4xNDFhMTEuNTEgMTEuNTEgMCAwIDEtNC40NzYgNC4yOWMtMS45IDEuMDMzLTQuMDI5IDEuNTQyLTYuMzg5IDEuNTQyLTIuMzYuMDI3LTQuNTAzLS40OTYtNi40MTYtMS41NDJ6bTExLjUyOS0xLjkxN2E5LjMgOS4zIDAgMCAwIDMuNTgtMy41Yy44NjktMS40ODggMS4yODktMy4xNjQgMS4yODktNSAwLTEuODM3LS40MzQtMy41LTEuMjg5LTUuMDAyYTkuMyA5LjMgMCAwIDAtMy41OC0zLjQ5OWMtMS41Mi0uODQ1LTMuMjI5LTEuMjYtNS4xMTQtMS4yNi0xLjg4NSAwLTMuNTk0LjQxNS01LjEyNyAxLjI2cy0yLjc0IDIuMDExLTMuNjA4IDMuNWMtLjg2OCAxLjQ4OC0xLjMxNiAzLjE2NC0xLjMxNiA1IDAgMS44MzcuNDM0IDMuNTEzIDEuMzE2IDUuMDAyLjg2OCAxLjQ4OCAyLjA3NSAyLjY1NCAzLjYwOCAzLjUgMS41MzMuODQ0IDMuMjQyIDEuMjYgNS4xMjcgMS4yNiAxLjg4NSAwIDMuNTgtLjQzIDUuMTE0LTEuMjZ6Ii8+PHBhdGggZD0iTTEyNy4xOTYgMTUuNjk3bC00Ljg3IDQuODh2Ni4xOTVoLTIuNTIzVjMuMjAyaDIuNTIzVjE3LjQ0bDEzLjk5OC0xNC4yMzloMi44OUwxMjguODkgMTMuODc0bDExLjAyOCAxMi44ODVoLTIuOTk4eiIvPjwvZz48L3N2Zz4=;" vertex="1" parent="1">
          <mxGeometry x="500" y="266.96000000000004" width="140" height="29" as="geometry" />
        </mxCell>
      </root>
    </mxGraphModel>
  </diagram>
</mxfile>
